<?xml version="1.0" encoding="UTF-8" standalone="no"?>
<!-- Generator: Adobe Illustrator 15.0.0, SVG Export Plug-In . SVG Version: 6.00 Build 0)  -->

<svg
		xmlns:dc="http://purl.org/dc/elements/1.1/"
		xmlns:cc="http://creativecommons.org/ns#"
		xmlns:rdf="http://www.w3.org/1999/02/22-rdf-syntax-ns#"
		xmlns="http://www.w3.org/2000/svg"
		xmlns:sodipodi="http://sodipodi.sourceforge.net/DTD/sodipodi-0.dtd"
		xmlns:inkscape="http://www.inkscape.org/namespaces/inkscape"
		version="1.1"
		id="レイヤー_1"
		x="0px"
		y="0px"
		width="401.98px"
		height="559.472px"
		viewBox="0 0 401.98 559.472"
		enable-background="new 0 0 401.98 559.472"
		xml:space="preserve"
		sodipodi:docname="gopher.svg"
		inkscape:version="0.92.3 (2405546, 2018-03-11)"><metadata
   id="metadata973"><rdf:RDF><cc:Work
       rdf:about=""><dc:format>image/svg+xml</dc:format><dc:type
         rdf:resource="http://purl.org/dc/dcmitype/StillImage" /></cc:Work></rdf:RDF></metadata><defs
   id="defs971" /><sodipodi:namedview
   pagecolor="#ffffff"
   bordercolor="#666666"
   borderopacity="1"
   objecttolerance="10"
   gridtolerance="10"
   guidetolerance="10"
   inkscape:pageopacity="0"
   inkscape:pageshadow="2"
   inkscape:window-width="1853"
   inkscape:window-height="1025"
   id="namedview969"
   showgrid="false"
   inkscape:zoom="1.5085653"
   inkscape:cx="200.99001"
   inkscape:cy="295.54019"
   inkscape:window-x="67"
   inkscape:window-y="27"
   inkscape:window-maximized="1"
   inkscape:current-layer="レイヤー_1" />
<path
   fill-rule="evenodd"
   clip-rule="evenodd"
   fill="#F6D2A2"
   stroke="#000000"
   stroke-width="3"
   stroke-linecap="round"
   d="  M10.634,300.493c0.764,15.751,16.499,8.463,23.626,3.539c6.765-4.675,8.743-0.789,9.337-10.015  c0.389-6.064,1.088-12.128,0.744-18.216c-10.23-0.927-21.357,1.509-29.744,7.602C10.277,286.542,2.177,296.561,10.634,300.493"
   id="path914" />
<path
   fill-rule="evenodd"
   clip-rule="evenodd"
   fill="#C6B198"
   stroke="#000000"
   stroke-width="3"
   stroke-linecap="round"
   d="  M10.634,300.493c2.29-0.852,4.717-1.457,6.271-3.528"
   id="path916" />
<path
   fill-rule="evenodd"
   clip-rule="evenodd"
   fill="#6AD7E5"
   stroke="#000000"
   stroke-width="3"
   stroke-linecap="round"
   d="  M46.997,112.853C-13.3,95.897,31.536,19.189,79.956,50.74L46.997,112.853z"
   id="path918" />
<path
   fill-rule="evenodd"
   clip-rule="evenodd"
   fill="#6AD7E5"
   stroke="#000000"
   stroke-width="3"
   stroke-linecap="round"
   d="  M314.895,44.984c47.727-33.523,90.856,42.111,35.388,61.141L314.895,44.984z"
   id="path920" />
<path
   fill-rule="evenodd"
   clip-rule="evenodd"
   fill="#F6D2A2"
   stroke="#000000"
   stroke-width="3"
   stroke-linecap="round"
   d="  M325.161,494.343c12.123,7.501,34.282,30.182,16.096,41.18c-17.474,15.999-27.254-17.561-42.591-22.211  C305.271,504.342,313.643,496.163,325.161,494.343z"
   id="path922" />
<path
   fill-rule="evenodd"
   clip-rule="evenodd"
   fill="none"
   stroke="#000000"
   stroke-width="3"
   stroke-linecap="round"
   d="  M341.257,535.522c-2.696-5.361-3.601-11.618-8.102-15.939"
   id="path924" />
<path
   fill-rule="evenodd"
   clip-rule="evenodd"
   fill="#F6D2A2"
   stroke="#000000"
   stroke-width="3"
   stroke-linecap="round"
   d="  M108.579,519.975c-14.229,2.202-22.238,15.039-34.1,21.558c-11.178,6.665-15.454-2.134-16.461-3.92  c-1.752-0.799-1.605,0.744-4.309-1.979c-10.362-16.354,10.797-28.308,21.815-36.432C90.87,496.1,100.487,509.404,108.579,519.975z"
   id="path926" />
<path
   fill-rule="evenodd"
   clip-rule="evenodd"
   fill="none"
   stroke="#000000"
   stroke-width="3"
   stroke-linecap="round"
   d="  M58.019,537.612c0.542-6.233,5.484-10.407,7.838-15.677"
   id="path928" />
<path
   fill-rule="evenodd"
   clip-rule="evenodd"
   d="M49.513,91.667c-7.955-4.208-13.791-9.923-8.925-19.124  c4.505-8.518,12.874-7.593,20.83-3.385L49.513,91.667z"
   id="path930" />
<path
   fill-rule="evenodd"
   clip-rule="evenodd"
   d="M337.716,83.667c7.955-4.208,13.791-9.923,8.925-19.124  c-4.505-8.518-12.874-7.593-20.83-3.385L337.716,83.667z"
   id="path932" />
<path
   fill-rule="evenodd"
   clip-rule="evenodd"
   fill="#F6D2A2"
   stroke="#000000"
   stroke-width="3"
   stroke-linecap="round"
   d="  M392.475,298.493c-0.764,15.751-16.499,8.463-23.626,3.539c-6.765-4.675-8.743-0.789-9.337-10.015  c-0.389-6.064-1.088-12.128-0.744-18.216c10.23-0.927,21.357,1.509,29.744,7.602C392.831,284.542,400.932,294.561,392.475,298.493"
   id="path934" />
<path
   fill-rule="evenodd"
   clip-rule="evenodd"
   fill="#C6B198"
   stroke="#000000"
   stroke-width="3"
   stroke-linecap="round"
   d="  M392.475,298.493c-2.29-0.852-4.717-1.457-6.271-3.528"
   id="path936" />
<g
   id="g940">
	<path
   fill-rule="evenodd"
   clip-rule="evenodd"
   fill="#6AD7E5"
   stroke="#000000"
   stroke-width="3"
   stroke-linecap="round"
   d="   M195.512,13.124c60.365,0,116.953,8.633,146.452,66.629c26.478,65.006,17.062,135.104,21.1,203.806   c3.468,58.992,11.157,127.145-16.21,181.812c-28.79,57.514-100.73,71.982-160,69.863c-46.555-1.666-102.794-16.854-129.069-59.389   c-30.826-49.9-16.232-124.098-13.993-179.622c2.652-65.771-17.815-131.742,3.792-196.101   C69.999,33.359,130.451,18.271,195.512,13.124"
   id="path938" />
</g>
<path
   d="m 273.10709,40.436037 c -21.14429,-4.527899 -28.39355,34.46997 -65.51416,40.462634 -13.33615,2.152957 -0.34897,27.603599 12.0059,40.639009 40.24464,42.46202 109.38552,-16.31666 75.76333,-65.554641 -7.34877,-8.203468 -14.40072,-13.865049 -22.25507,-15.547002 z"
   id="path942"
   inkscape:connector-curvature="0"
   style="clip-rule:evenodd;fill:#ffffff;fill-rule:evenodd;stroke:#000000;stroke-width:2.90809989;stroke-linecap:round"
   sodipodi:nodetypes="ssccs" />
<path
   d="m 83.103,104.35 c 14.047,54.85 101.864,40.807 98.554,-14.213 -0.14064,-2.336671 1.34604,-7.045235 -0.80437,-6.714535 C 147.16397,88.603267 96.124364,59.969195 91.95756,64.808428 83.719378,74.37607 79.789061,87.720345 83.103,104.35"
   id="path944"
   inkscape:connector-curvature="0"
   style="clip-rule:evenodd;fill:#ffffff;fill-rule:evenodd;stroke:#000000;stroke-width:2.82139993;stroke-linecap:round"
   sodipodi:nodetypes="ccssc" />
<path
   fill-rule="evenodd"
   clip-rule="evenodd"
   fill="#FFFFFF"
   stroke="#000000"
   stroke-width="3"
   stroke-linecap="round"
   d="  M218.594,169.762c0.046,8.191,1.861,17.387,0.312,26.101c-2.091,3.952-6.193,4.37-9.729,5.967c-4.89-0.767-9.002-3.978-10.963-8.552  c-1.255-9.946,0.468-19.576,0.785-29.526L218.594,169.762z"
   id="path946" />
<g
   id="g952">
	<ellipse
   fill-rule="evenodd"
   clip-rule="evenodd"
   cx="107.324"
   cy="95.404"
   rx="14.829"
   ry="16.062"
   id="ellipse948" />
	<ellipse
   fill-rule="evenodd"
   clip-rule="evenodd"
   fill="#FFFFFF"
   cx="114.069"
   cy="99.029"
   rx="3.496"
   ry="4.082"
   id="ellipse950" />
</g>
<g
   id="g958"
   transform="translate(47.727468,-5.9659335)">
	<ellipse
   cx="235.571"
   cy="87.403999"
   rx="14.582"
   ry="16.062"
   id="ellipse954"
   style="clip-rule:evenodd;fill-rule:evenodd" />
	<ellipse
   cx="238.20399"
   cy="95.028999"
   rx="3.438"
   ry="4.0819998"
   id="ellipse956"
   style="clip-rule:evenodd;fill:#ffffff;fill-rule:evenodd" />
</g>
<path
   fill-rule="evenodd"
   clip-rule="evenodd"
   fill="#FFFFFF"
   stroke="#000000"
   stroke-width="3"
   stroke-linecap="round"
   d="  M176.217,168.87c-6.47,15.68,3.608,47.035,21.163,23.908c-1.255-9.946,0.468-19.576,0.785-29.526L176.217,168.87z"
   id="path960" />
<g
   id="g966">
	<path
   fill-rule="evenodd"
   clip-rule="evenodd"
   fill="#F6D2A2"
   stroke="#231F20"
   stroke-width="3"
   stroke-linecap="round"
   d="   M178.431,138.673c-12.059,1.028-21.916,15.366-15.646,26.709c8.303,15.024,26.836-1.329,38.379,0.203   c13.285,0.272,24.17,14.047,34.84,2.49c11.867-12.854-5.109-25.373-18.377-30.97L178.431,138.673z"
   id="path962" />
	<path
   fill-rule="evenodd"
   clip-rule="evenodd"
   d="M176.913,138.045c-0.893-20.891,38.938-23.503,43.642-6.016   C225.247,149.475,178.874,153.527,176.913,138.045C175.348,125.682,176.913,138.045,176.913,138.045z"
   id="path964" />
</g>
<rect
   style="fill:#ffffff;fill-opacity:1;stroke:#000000;stroke-width:4.23307085;stroke-linecap:butt;stroke-miterlimit:4;stroke-dasharray:none;stroke-opacity:1;paint-order:stroke markers fill"
   id="rect975"
   width="240.62598"
   height="86.174591"
   x="82.129173"
   y="147.79987" /><text
   xml:space="preserve"
   style="font-style:normal;font-variant:normal;font-weight:500;font-stretch:normal;font-size:53.33333206px;line-height:1.25;font-family:aakar;-inkscape-font-specification:'aakar Medium';letter-spacing:4.5px;word-spacing:8.05000305px;fill:#000000;fill-opacity:1;stroke:none"
   x="121.01376"
   y="207.79593"
   id="text979"><tspan
     sodipodi:role="line"
     x="121.01376"
     y="207.79593"
     id="tspan981"
     style="font-style:normal;font-variant:normal;font-weight:normal;font-stretch:normal;font-family:Gubbi;-inkscape-font-specification:Gubbi">!#~%</tspan></text>
</svg>