<?xml version="1.0" encoding="UTF-8" standalone="no"?>
<!-- Generator: Adobe Illustrator 15.0.0, SVG Export Plug-In . SVG Version: 6.00 Build 0)  -->

<svg
        xmlns:dc="http://purl.org/dc/elements/1.1/"
        xmlns:cc="http://creativecommons.org/ns#"
        xmlns:rdf="http://www.w3.org/1999/02/22-rdf-syntax-ns#"
        xmlns="http://www.w3.org/2000/svg"
        xmlns:sodipodi="http://sodipodi.sourceforge.net/DTD/sodipodi-0.dtd"
        xmlns:inkscape="http://www.inkscape.org/namespaces/inkscape"
        version="1.1"
        id="レイヤー_1"
        x="0px"
        y="0px"
        width="1000"
        height="300"
        viewBox="0 0 999.99997 300.00002"
        enable-background="new 0 0 401.98 559.472"
        xml:space="preserve"
        sodipodi:docname="profane_gopher.svg"
        inkscape:version="0.92.3 (2405546, 2018-03-11)"><metadata
   id="metadata973"><rdf:RDF><cc:Work
       rdf:about=""><dc:format>image/svg+xml</dc:format><dc:type
         rdf:resource="http://purl.org/dc/dcmitype/StillImage" /><dc:title /></cc:Work></rdf:RDF></metadata><defs
   id="defs971" /><sodipodi:namedview
   pagecolor="#ffffff"
   bordercolor="#666666"
   borderopacity="1"
   objecttolerance="10"
   gridtolerance="10"
   guidetolerance="10"
   inkscape:pageopacity="0"
   inkscape:pageshadow="2"
   inkscape:window-width="927"
   inkscape:window-height="1023"
   id="namedview969"
   showgrid="false"
   inkscape:zoom="0.70710678"
   inkscape:cx="545.2948"
   inkscape:cy="167.27048"
   inkscape:window-x="67"
   inkscape:window-y="27"
   inkscape:window-maximized="0"
   inkscape:current-layer="レイヤー_1" />
<path
   d="m 744.94658,160.38634 c 0.4098,8.44865 8.84989,4.53944 12.67271,1.89827 3.62867,-2.50762 4.68964,-0.4232 5.00827,-5.37193 0.20861,-3.25266 0.58358,-6.50532 0.39908,-9.77084 -5.48727,-0.49725 -11.45565,0.80941 -15.95435,4.07762 -2.31719,1.68373 -6.66194,7.05779 -2.12571,9.16688"
   id="path914"
   inkscape:connector-curvature="0"
   style="clip-rule:evenodd;fill:#f6d2a2;fill-rule:evenodd;stroke:#000000;stroke-width:1.60916543;stroke-linecap:round" />
<path
   d="m 744.94658,160.38634 c 1.22833,-0.45699 2.53016,-0.78152 3.3637,-1.89238"
   id="path916"
   inkscape:connector-curvature="0"
   style="clip-rule:evenodd;fill:#c6b198;fill-rule:evenodd;stroke:#000000;stroke-width:1.60916543;stroke-linecap:round" />
<path
   d="M 764.45127,59.73841 C 732.10867,50.643401 756.15818,9.4981168 782.1301,26.421707 Z"
   id="path918"
   inkscape:connector-curvature="0"
   style="clip-rule:evenodd;fill:#6ad7d2;fill-rule:evenodd;stroke:#000000;stroke-width:1.60916543;stroke-linecap:round;fill-opacity:1" />
<path
   d="m 908.14869,23.33425 c 25.6002,-17.9813478 48.7341,22.587851 18.98171,32.795318 z"
   id="path920"
   inkscape:connector-curvature="0"
   style="clip-rule:evenodd;fill:#6ad7d2;fill-rule:evenodd;stroke:#000000;stroke-width:1.60916543;stroke-linecap:round;fill-opacity:1" />
<path
   d="m 913.65524,264.36526 c 6.50264,4.02344 18.38848,16.18928 8.63372,22.08847 -9.37287,8.58168 -14.61873,-9.41951 -22.84532,-11.91372 3.54285,-4.81141 8.03349,-9.19853 14.2116,-10.17475 z"
   id="path922"
   inkscape:connector-curvature="0"
   style="clip-rule:evenodd;fill:#f6d2a2;fill-rule:evenodd;stroke:#000000;stroke-width:1.60916543;stroke-linecap:round" />
<path
   d="m 922.28896,286.45319 c -1.44612,-2.87557 -1.93155,-6.23175 -4.34583,-8.54948"
   id="path924"
   inkscape:connector-curvature="0"
   style="clip-rule:evenodd;fill:none;fill-rule:evenodd;stroke:#000000;stroke-width:1.60916543;stroke-linecap:round" />
<path
   d="m 797.48316,278.11396 c -7.63228,1.18113 -11.92821,8.06675 -18.29085,11.56347 -5.99576,3.57503 -8.28935,-1.14465 -8.8295,-2.10264 -0.93974,-0.42858 -0.8609,0.39907 -2.31129,-1.06152 -5.55806,-8.7721 5.79139,-15.18408 11.70131,-19.5417 8.23143,-1.66389 13.38988,5.47223 17.73033,11.14239 z"
   id="path926"
   inkscape:connector-curvature="0"
   style="clip-rule:evenodd;fill:#f6d2a2;fill-rule:evenodd;stroke:#000000;stroke-width:1.60916543;stroke-linecap:round" />
<path
   d="m 770.36335,287.57425 c 0.29073,-3.34332 2.94156,-5.5822 4.20421,-8.40897"
   id="path928"
   inkscape:connector-curvature="0"
   style="clip-rule:evenodd;fill:none;fill-rule:evenodd;stroke:#000000;stroke-width:1.60916543;stroke-linecap:round" />
<path
   d="m 765.80084,48.374475 c -4.26699,-2.257114 -7.39733,-5.322587 -4.78727,-10.257892 2.41642,-4.56897 6.90546,-4.072807 11.17297,-1.815672 z"
   id="path930"
   inkscape:connector-curvature="0"
   style="clip-rule:evenodd;fill-rule:evenodd;stroke-width:0.53638852" />
<path
   d="m 920.38961,44.083365 c 4.26697,-2.257113 7.39733,-5.322586 4.78725,-10.257891 -2.41642,-4.568949 -6.90546,-4.072807 -11.17297,-1.815672 z"
   id="path932"
   inkscape:connector-curvature="0"
   style="clip-rule:evenodd;fill-rule:evenodd;stroke-width:0.53638852" />
<path
   d="m 949.7617,159.31357 c -0.40979,8.44865 -8.84987,4.53945 -12.67272,1.89827 -3.62866,-2.50761 -4.68964,-0.42321 -5.00825,-5.37193 -0.2086,-3.25266 -0.5836,-6.50531 -0.39907,-9.77086 5.48725,-0.49722 11.45565,0.80941 15.95433,4.07764 2.31667,1.68371 6.66196,7.0578 2.12571,9.16688"
   id="path934"
   inkscape:connector-curvature="0"
   style="clip-rule:evenodd;fill:#f6d2a2;fill-rule:evenodd;stroke:#000000;stroke-width:1.60916543;stroke-linecap:round" />
<path
   d="m 949.7617,159.31357 c -1.22832,-0.45701 -2.53014,-0.78152 -3.36368,-1.89238"
   id="path936"
   inkscape:connector-curvature="0"
   style="clip-rule:evenodd;fill:#c6b198;fill-rule:evenodd;stroke:#000000;stroke-width:1.60916543;stroke-linecap:round" />
<g
   id="g940"
   transform="matrix(0.53638849,0,0,0.53638849,739.24263,-0.7946502)">
	<path
   d="m 195.512,13.124 c 60.365,0 116.953,8.633 146.452,66.629 26.478,65.006 17.062,135.104 21.1,203.806 3.468,58.992 11.157,127.145 -16.21,181.812 -28.79,57.514 -100.73,71.982 -160,69.863 C 140.299,533.568 84.06,518.38 57.785,475.845 26.959,425.945 41.553,351.747 43.792,296.223 46.444,230.452 25.977,164.481 47.584,100.122 69.999,33.359 130.451,18.271 195.512,13.124"
   id="path938"
   inkscape:connector-curvature="0"
   style="clip-rule:evenodd;fill:#6ad7d2;fill-rule:evenodd;stroke:#000000;stroke-width:3;stroke-linecap:round;fill-opacity:1" />
</g>
<path
   d="m 885.73414,20.894768 c -11.34157,-2.428706 -15.22997,18.489302 -35.14106,21.703693 -7.15335,1.154827 -0.18723,14.80626 6.43984,21.7983 21.58676,22.776136 58.67312,-8.752062 40.63858,-35.162759 -3.94181,-4.40025 -7.72438,-7.437045 -11.93736,-8.339234 z"
   id="path942"
   inkscape:connector-curvature="0"
   style="clip-rule:evenodd;fill:#ffffff;fill-rule:evenodd;stroke:#000000;stroke-width:1.55987144;stroke-linecap:round"
   sodipodi:nodetypes="ssccs" />
<path
   d="m 783.81812,55.177495 c 7.53465,29.420909 54.63869,21.888393 52.86322,-7.623689 -0.0754,-1.253364 0.72201,-3.778988 -0.43144,-3.601608 -18.07021,2.778931 -45.44728,-12.58007 -47.6823,-9.984349 -4.41886,5.131969 -6.52704,12.289684 -4.74948,21.209646"
   id="path944"
   inkscape:connector-curvature="0"
   style="clip-rule:evenodd;fill:#ffffff;fill-rule:evenodd;stroke:#000000;stroke-width:1.51336646;stroke-linecap:round"
   sodipodi:nodetypes="ccssc" />
<path
   d="m 856.49393,90.263744 c 0.0246,4.393555 0.99823,9.326182 0.16736,14.000276 -1.12159,2.11979 -3.32186,2.34401 -5.21852,3.20061 -2.62295,-0.4114 -4.82858,-2.13374 -5.88044,-4.58719 -0.67316,-5.33492 0.25104,-10.50034 0.42108,-15.837395 z"
   id="path946"
   inkscape:connector-curvature="0"
   style="clip-rule:evenodd;fill:#ffffff;fill-rule:evenodd;stroke:#000000;stroke-width:1.60916543;stroke-linecap:round" />
<g
   id="g952"
   transform="matrix(0.53638849,0,0,0.53638849,739.24263,-0.7946502)">
	<ellipse
   cx="107.324"
   cy="95.403999"
   rx="14.829"
   ry="16.062"
   id="ellipse948"
   style="clip-rule:evenodd;fill-rule:evenodd" />
	<ellipse
   cx="114.069"
   cy="99.028999"
   rx="3.4960001"
   ry="4.0819998"
   id="ellipse950"
   style="clip-rule:evenodd;fill:#ffffff;fill-rule:evenodd" />
</g>
<g
   id="g958"
   transform="matrix(0.53638849,0,0,0.53638849,764.84309,-3.9947022)">
	<ellipse
   cx="235.571"
   cy="87.403999"
   rx="14.582"
   ry="16.062"
   id="ellipse954"
   style="clip-rule:evenodd;fill-rule:evenodd" />
	<ellipse
   cx="238.20399"
   cy="95.028999"
   rx="3.438"
   ry="4.0819998"
   id="ellipse956"
   style="clip-rule:evenodd;fill:#ffffff;fill-rule:evenodd" />
</g>
<path
   d="m 833.76341,89.785267 c -3.47044,8.410583 1.93528,25.229053 11.35158,12.823983 -0.67318,-5.334917 0.25102,-10.500336 0.42106,-15.837413 z"
   id="path960"
   inkscape:connector-curvature="0"
   style="clip-rule:evenodd;fill:#ffffff;fill-rule:evenodd;stroke:#000000;stroke-width:1.60916543;stroke-linecap:round" />
<g
   id="g966"
   transform="matrix(0.53638849,0,0,0.53638849,739.24263,-0.7946502)">
	<path
   d="m 178.431,138.673 c -12.059,1.028 -21.916,15.366 -15.646,26.709 8.303,15.024 26.836,-1.329 38.379,0.203 13.285,0.272 24.17,14.047 34.84,2.49 11.867,-12.854 -5.109,-25.373 -18.377,-30.97 z"
   id="path962"
   inkscape:connector-curvature="0"
   style="clip-rule:evenodd;fill:#f6d2a2;fill-rule:evenodd;stroke:#231f20;stroke-width:3;stroke-linecap:round" />
	<path
   d="m 176.913,138.045 c -0.893,-20.891 38.938,-23.503 43.642,-6.016 4.692,17.446 -41.681,21.498 -43.642,6.016 -1.565,-12.363 0,0 0,0 z"
   id="path964"
   inkscape:connector-curvature="0"
   style="clip-rule:evenodd;fill-rule:evenodd" />
</g>
<rect
   style="fill:#ffffff;fill-opacity:1;stroke:#000000;stroke-width:2.27057052;stroke-linecap:butt;stroke-miterlimit:4;stroke-dasharray:none;stroke-opacity:1;paint-order:stroke markers fill"
   id="rect975"
   width="129.06902"
   height="46.223057"
   x="783.29584"
   y="78.483467" /><text
   xml:space="preserve"
   style="font-style:normal;font-variant:normal;font-weight:500;font-stretch:normal;font-size:28.60738564px;line-height:1.25;font-family:aakar;-inkscape-font-specification:'aakar Medium';letter-spacing:2.41374826px;word-spacing:4.31792879px;fill:#000000;fill-opacity:1;stroke:none;stroke-width:0.53638852"
   x="804.15314"
   y="110.66473"
   id="text979"><tspan
     sodipodi:role="line"
     x="804.15314"
     y="110.66473"
     id="tspan981"
     style="font-style:normal;font-variant:normal;font-weight:normal;font-stretch:normal;font-family:Gubbi;-inkscape-font-specification:Gubbi;stroke-width:0.53638852">!#~%</tspan></text>


<text
   xml:space="preserve"
   style="font-style:normal;font-variant:normal;font-weight:normal;font-stretch:normal;font-size:86.3793335px;line-height:1.25;font-family:'Segoe UI';-inkscape-font-specification:'Segoe UI';letter-spacing:0px;word-spacing:0px;fill:#adbac7;fill-opacity:1;stroke:#22272e;stroke-width:10;stroke-miterlimit:4;stroke-dasharray:none;stroke-opacity:1;stroke-linejoin:round"
   x="57.058929"
   y="179.91051"
   id="text923"><tspan
     sodipodi:role="line"
     id="tspan921"
     x="57.058929"
     y="179.91051"
     style="stroke-width:10;-inkscape-font-specification:Chandas;font-family:Chandas;font-weight:normal;font-style:normal;font-stretch:normal;font-variant:normal;fill:#adbac7;fill-opacity:1;stroke:#22272e;stroke-opacity:1;stroke-miterlimit:4;stroke-dasharray:none;stroke-linejoin:round">profaneword</tspan></text>
<text
   id="text845"
   y="179.91051"
   x="57.058929"
   style="font-style:normal;font-variant:normal;font-weight:normal;font-stretch:normal;font-size:86.3793335px;line-height:1.25;font-family:'Segoe UI';-inkscape-font-specification:'Segoe UI';letter-spacing:0px;word-spacing:0px;fill:#adbac7;fill-opacity:1;stroke:none;stroke-width:4;stroke-miterlimit:4;stroke-dasharray:none;stroke-opacity:1;"
   xml:space="preserve"><tspan
     style="stroke-width:4;-inkscape-font-specification:Chandas;font-family:Chandas;font-weight:normal;font-style:normal;font-stretch:normal;font-variant:normal;fill:#adbac7;fill-opacity:1;stroke:none;stroke-opacity:1;stroke-miterlimit:4;stroke-dasharray:none;"
     y="179.91051"
     x="57.058929"
     id="tspan843"
     sodipodi:role="line">profaneword</tspan></text>

</svg>